<?xml version="1.0" encoding="utf-8"?>
<!-- Generator: Adobe Illustrator 25.3.1, SVG Export Plug-In . SVG Version: 6.00 Build 0)  -->
<svg version="1.1" id="图层_1" xmlns="http://www.w3.org/2000/svg" xmlns:xlink="http://www.w3.org/1999/xlink" x="0px" y="0px"
	 viewBox="0 0 734 734" style="enable-background:new 0 0 734 734;" xml:space="preserve">
<style type="text/css">
	.st0{fill-rule:evenodd;clip-rule:evenodd;}
</style>
<g>
	<path class="st0" d="M497.3,501.6c-19.9-11-44.5-16.6-73.1-16.6c-25.9,0-45.9,7.2-56.9,13.1c-18.6-8.7-40.8-13.1-66.1-13.1
		c-36.2,0-60.8,13.9-65.6,19c-5,5.2-4.8,13.4,0.4,18.4c4.9,4.7,12.6,4.8,17.6,0.4c3.8-2.7,21.6-11.7,47.6-11.7
		c24.1,0,44.5,4.5,60.5,13.4c0,0,0.1,0,0.1,0c0.5,0.3,0.9,0.5,1.4,0.7c0,0,0.1,0,0.1,0c0.4,0.2,0.9,0.3,1.3,0.4
		c0.1,0,0.3,0.1,0.4,0.1c0.4,0.1,0.7,0.2,1.1,0.2c0.1,0,0.3,0,0.4,0.1c0.5,0.1,0.9,0.1,1.4,0.1c0,0,0.1,0,0.1,0c0.1,0,0.2,0,0.2,0
		c0.4,0,0.8,0,1.2-0.1c0.1,0,0.2,0,0.4,0c0.5-0.1,1-0.2,1.5-0.3c0,0,0,0,0,0c0.5-0.1,1-0.3,1.5-0.5c0.1,0,0.2-0.1,0.3-0.1
		c0.4-0.2,0.9-0.4,1.3-0.6c0,0,0.1,0,0.1-0.1c0.4-0.3,0.9-0.5,1.3-0.9c0.1-0.1,0.2-0.2,0.3-0.3c0.2-0.1,0.3-0.2,0.5-0.4
		c3.8-2.7,21.6-11.7,47.6-11.7c24.1,0,44.5,4.5,60.5,13.4c2,1.1,4.2,1.6,6.3,1.6c4.6,0,9-2.4,11.4-6.7
		C505.9,513,503.6,505.1,497.3,501.6z"/>
	<path class="st0" d="M281.5,464.2c5.9,4.1,14,2.7,18.1-3.2l24.9-35.6c0.2,0,0.3,0,0.5,0.1l64.8,4.5c7.2,0.5,13.4-4.9,13.9-12.1
		s-4.9-13.4-12.1-13.9l-49.8-3.5l18.6-26.6l64.6,4.5c7.2,0.5,13.4-4.9,13.9-12.1c0.5-7.2-4.9-13.4-12.1-13.9l-49-3.4l36.9-52.8
		c4.1-5.9,2.7-14-3.2-18.1c-5.9-4.1-14-2.7-18.1,3.2l-74.2,106c-24.7-38.8-9.2-60.9-3.8-68.7c19.8-28.3,40.4-57.5,61.3-86.6
		c0.3-0.4,0.6-0.9,0.8-1.4l0.1,0.1c9.9-13.2,25.1-20.3,40.5-20.3c10,0,20.1,3,28.9,9.1h0c11,7.7,18.4,19.3,20.8,32.6
		c2.3,12.8-0.4,25.7-7.5,36.5l0.1,0l-11.7,17.2c-4,5.9-2.5,14,3.5,18c2.2,1.5,4.8,2.2,7.3,2.2c4.2,0,8.3-2,10.8-5.7l13.7-20.3
		c0.6-0.9,1.1-1.9,1.5-2.9c8.2-15.1,11.1-32.4,8-49.6c-3.5-20.1-14.7-37.7-31.5-49.4c-34.1-23.9-81.2-15.9-105.7,17.6l0,0
		c-0.3,0.3-0.6,0.7-0.9,1.1c-20.9,29.2-41.5,58.4-61.4,86.8c-11.9,17-16.5,35.5-13.8,55c2.3,16.5,10,33.7,22.9,51.4l-25.2,35.9
		C274.2,452,275.6,460.1,281.5,464.2z"/>
</g>
</svg>
