<svg width="22" height="22" viewBox="0 0 22 22" fill="none" xmlns="http://www.w3.org/2000/svg">
<g opacity="0.4">
<path d="M11 6.41667C11 5.44421 10.6137 4.51158 9.92605 3.82394C9.23842 3.13631 8.30579 2.75 7.33333 2.75H1.83333V16.5H8.25C8.97934 16.5 9.67881 16.7897 10.1945 17.3055C10.7103 17.8212 11 18.5207 11 19.25M11 6.41667V19.25M11 6.41667C11 5.44421 11.3863 4.51158 12.0739 3.82394C12.7616 3.13631 13.6942 2.75 14.6667 2.75H20.1667V16.5H13.75C13.0206 16.5 12.3212 16.7897 11.8055 17.3055C11.2897 17.8212 11 18.5207 11 19.25" stroke="#CCCCCC" stroke-width="1.5" stroke-linecap="round" stroke-linejoin="round"/>
</g>
</svg>
