<svg width="23" height="16" viewBox="0 0 23 16" fill="none" xmlns="http://www.w3.org/2000/svg">
<path opacity="0.2" d="M22.6 10.4C22.6 11.8667 22.0833 13.1333 21.05 14.2C20.0167 15.2333 18.7667 15.75 17.3 15.75C15.5667 15.75 14.1667 15.1 13.1 13.8C12.1 12.6 11.6 11.1 11.6 9.3C11.6 6.1 14.3167 3 19.75 0L20.6 1.25C18.7 2.75 17.75 3.98333 17.75 4.95C17.75 5.25 18.1667 5.55 19 5.85C20.2667 6.31667 21.1667 6.83333 21.7 7.4C22.3 8.1 22.6 9.1 22.6 10.4ZM11 10.4C11 11.8667 10.4833 13.1333 9.45 14.2C8.41667 15.2333 7.16667 15.75 5.7 15.75C3.96667 15.75 2.56667 15.1 1.5 13.8C0.5 12.6 0 11.1 0 9.3C0 6.1 2.71667 3 8.15 0L9 1.25C7.1 2.75 6.15 3.98333 6.15 4.95C6.15 5.25 6.56667 5.55 7.4 5.85C8.66667 6.31667 9.56667 6.83333 10.1 7.4C10.7 8.1 11 9.1 11 10.4Z" fill="url(#paint0_linear_153_588)"/>
<defs>
<linearGradient id="paint0_linear_153_588" x1="11" y1="5" x2="13.5" y2="14.5" gradientUnits="userSpaceOnUse">
<stop stop-color="#1AB761"/>
<stop offset="1" stop-color="#1AB761" stop-opacity="0"/>
</linearGradient>
</defs>
</svg>
